<svg width="396" height="110" viewBox="0 0 396 110" fill="none" xmlns="http://www.w3.org/2000/svg">
<path d="M54.104 79.088C52.184 79.088 50.584 78.384 49.304 76.976C48.088 75.568 47.128 73.68 46.424 71.312C45.784 68.944 45.304 66.32 44.984 63.44C44.728 60.496 44.6 57.52 44.6 54.512C44.6 53.232 44.6 52.016 44.6 50.864C44.664 49.648 44.728 48.432 44.792 47.216C44.472 47.28 44.12 47.312 43.736 47.312C43.416 47.312 43.096 47.312 42.776 47.312C40.856 47.312 39.32 47.12 38.168 46.736C37.592 46.544 37.048 46.064 36.536 45.296C36.088 44.528 35.704 43.696 35.384 42.8C35.128 41.904 35 41.232 35 40.784C35 40.464 35.064 40.304 35.192 40.304H35.288C36.824 40.752 38.36 41.104 39.896 41.36C41.432 41.616 42.968 41.744 44.504 41.744H45.176C45.304 40.144 45.432 38.736 45.56 37.52C45.688 36.24 45.784 35.184 45.848 34.352C46.232 30.384 46.68 26.64 47.192 23.12C47.768 19.536 48.376 16.368 49.016 13.616C46.712 13.296 44.376 13.04 42.008 12.848C39.704 12.592 37.336 12.464 34.904 12.464C33.048 12.464 31.128 12.56 29.144 12.752C27.224 12.88 25.272 13.168 23.288 13.616C19.384 14.448 16.088 15.728 13.4 17.456C10.712 19.184 8.696 21.072 7.352 23.12C6.008 25.168 5.336 27.152 5.336 29.072C5.336 31.056 6.136 32.784 7.736 34.256C9.4 35.664 11.896 36.368 15.224 36.368C15.736 36.368 16.248 36.368 16.76 36.368C17.272 36.304 17.816 36.24 18.392 36.176C20.12 35.92 22.2 35.376 24.632 34.544C27.064 33.712 29.56 32.688 32.12 31.472C34.744 30.192 37.08 28.816 39.128 27.344C39.32 27.152 39.704 27.056 40.28 27.056C40.536 27.056 40.664 27.152 40.664 27.344C40.664 27.536 40.504 27.856 40.184 28.304C39.928 28.688 39.416 29.264 38.648 30.032C35.448 33.168 31.704 35.472 27.416 36.944C23.192 38.352 19.032 39.056 14.936 39.056C14.296 39.056 13.656 39.056 13.016 39.056C12.44 38.992 11.864 38.928 11.288 38.864C7.768 38.48 5.016 37.136 3.032 34.832C1.112 32.528 0.152 29.872 0.152 26.864C0.152 24.624 0.76 22.352 1.976 20.048C3.192 17.68 5.048 15.536 7.544 13.616C10.104 11.632 13.4 10.064 17.432 8.912C21.464 7.696 26.296 7.088 31.928 7.088C34.616 7.088 37.528 7.312 40.664 7.75999C43.8 8.208 47 8.752 50.264 9.392C50.328 9.264 50.36 9.136 50.36 9.008C50.424 8.816 50.488 8.656 50.552 8.528C50.616 8.33599 50.744 8.23999 50.936 8.23999C51.192 8.17599 51.416 8.144 51.608 8.144C53.208 8.144 54.584 8.368 55.736 8.816C56.952 9.2 57.56 9.84 57.56 10.736C60.376 11.184 63.096 11.6 65.72 11.984C68.408 12.304 70.936 12.464 73.304 12.464C75.544 12.464 77.56 12.272 79.352 11.888C80.44 11.632 81.272 11.184 81.848 10.544C82.424 9.84 82.712 9.168 82.712 8.528C82.712 7.632 82.296 6.96 81.464 6.512C81.4 6.448 81.368 6.352 81.368 6.224C81.368 5.904 81.496 5.744 81.752 5.744C82.968 5.744 83.992 6.224 84.824 7.184C85.72 8.144 86.168 9.264 86.168 10.544C86.168 11.76 85.592 12.944 84.44 14.096C83.352 15.248 81.432 15.984 78.68 16.304C76.952 16.496 75.192 16.592 73.4 16.592C70.648 16.592 67.864 16.432 65.048 16.112C62.296 15.728 59.512 15.312 56.696 14.864C56.056 17.808 55.288 21.744 54.392 26.672C53.56 31.536 52.792 36.624 52.088 41.936C55.544 41.872 58.936 41.648 62.264 41.264C65.656 40.816 68.536 40.144 70.904 39.248C71.224 39.056 71.448 38.96 71.576 38.96C72.024 38.96 72.28 39.152 72.344 39.536V39.728C72.344 40.112 72.12 40.432 71.672 40.688C71.224 40.944 70.936 41.136 70.808 41.264C69.656 41.776 68.024 42.352 65.912 42.992C63.864 43.632 61.592 44.272 59.096 44.912C56.6 45.488 54.072 46 51.512 46.448C51.384 48.24 51.256 49.968 51.128 51.632C51 53.296 50.904 54.96 50.84 56.624C50.84 57.264 50.808 57.936 50.744 58.64C50.744 59.344 50.744 60.08 50.744 60.848C50.744 63.024 50.84 65.232 51.032 67.472C51.288 69.648 51.736 71.472 52.376 72.944C53.016 74.416 53.976 75.152 55.256 75.152C55.896 75.152 56.472 74.96 56.984 74.576C57.496 74.192 57.848 73.776 58.04 73.328C58.232 72.816 58.456 72.56 58.712 72.56C59.096 72.56 59.288 72.88 59.288 73.52V73.712C59.288 75.248 58.808 76.528 57.848 77.552C56.952 78.576 55.704 79.088 54.104 79.088ZM82.7233 74.384C80.4193 74.384 78.5953 73.648 77.2513 72.176C75.9073 70.704 74.9153 68.944 74.2753 66.896C73.6353 64.784 73.2513 62.832 73.1233 61.04C72.9953 59.312 72.8993 57.488 72.8353 55.568C72.7713 53.584 72.7393 51.504 72.7393 49.328C72.7393 45.36 72.8353 41.264 73.0273 37.04C73.2833 32.816 73.6353 28.72 74.0833 24.752C74.5953 20.72 75.2033 17.136 75.9073 14C76.2913 12.4 76.8993 10.576 77.7313 8.528C78.5633 6.48 79.6513 4.72 80.9953 3.248C82.3393 1.712 83.9393 0.943996 85.7953 0.943996C89.5713 0.943996 91.4593 3.792 91.4593 9.488C91.4593 11.728 91.0753 14.96 90.3073 19.184C89.6033 23.344 88.2913 28.016 86.3713 33.2C85.4113 35.888 84.2593 38.608 82.9153 41.36C81.6353 44.048 80.3553 46.512 79.0753 48.752C79.0113 49.264 78.9793 49.808 78.9793 50.384C78.9793 50.896 78.9793 51.408 78.9793 51.92C78.9793 54.096 79.0433 56.304 79.1713 58.544C79.3633 60.784 79.6513 62.864 80.0353 64.784C80.4833 66.64 81.0913 68.144 81.8593 69.296C82.6273 70.448 83.6193 71.024 84.8353 71.024C86.2433 71.024 87.3633 70.448 88.1953 69.296C89.0913 68.08 89.7633 66.928 90.2113 65.84C90.4673 65.264 90.6913 64.624 90.8833 63.92C91.1393 63.216 91.3953 62.48 91.6513 61.712C91.9073 61.008 92.2593 60.656 92.7073 60.656C93.0273 60.656 93.1873 61.008 93.1873 61.712V61.904C93.1873 62.352 93.0913 62.928 92.8993 63.632C92.7713 64.336 92.5793 65.04 92.3233 65.744C91.5553 68.112 90.4353 70.16 88.9633 71.888C87.4913 73.552 85.4113 74.384 82.7233 74.384ZM79.1713 44.624C80.8353 41.232 82.3713 37.648 83.7793 33.872C85.1873 30.032 86.3073 26.256 87.1393 22.544C88.0353 18.832 88.4833 15.472 88.4833 12.464C88.4833 10.608 88.3233 9.072 88.0033 7.856C87.7473 6.64 87.2353 6.032 86.4673 6.032C85.7633 6.032 85.0913 6.768 84.4513 8.23999C83.8753 9.64799 83.3313 11.536 82.8193 13.904C82.3073 16.272 81.8273 18.832 81.3793 21.584C80.9953 24.272 80.6433 26.96 80.3233 29.648C80.0673 32.272 79.8433 34.608 79.6513 36.656C79.5233 38.64 79.4273 40.08 79.3633 40.976C79.3633 41.36 79.3313 41.872 79.2673 42.512C79.2673 43.088 79.2353 43.792 79.1713 44.624ZM99.35 74.384C97.942 74.384 96.662 73.808 95.51 72.656C94.422 71.504 93.622 69.744 93.11 67.376C92.854 66.288 92.662 64.912 92.534 63.248C92.47 61.584 92.438 59.824 92.438 57.968C92.438 55.152 92.534 52.24 92.726 49.232C92.982 46.224 93.302 43.472 93.686 40.976C94.07 38.416 94.518 36.464 95.03 35.12C95.35 34.352 95.926 33.68 96.758 33.104C97.654 32.528 98.806 32.24 100.214 32.24C101.174 32.24 102.134 32.368 103.094 32.624C102.902 33.328 102.518 34.992 101.942 37.616C101.43 40.24 100.982 43.152 100.598 46.352C100.342 48.592 100.118 50.896 99.926 53.264C99.734 55.568 99.638 57.744 99.638 59.792C99.638 62.416 99.862 64.624 100.31 66.416C100.758 68.144 101.494 69.008 102.518 69.008C103.734 69.008 104.79 68.304 105.686 66.896C106.646 65.424 107.478 63.6 108.182 61.424C108.886 59.248 109.43 57.072 109.814 54.896C110.39 51.696 110.902 48.272 111.35 44.624C111.798 40.912 112.31 37.744 112.886 35.12C113.078 34.352 113.622 33.68 114.518 33.104C115.478 32.528 116.662 32.24 118.07 32.24C119.03 32.24 119.99 32.368 120.95 32.624C120.438 34.032 119.926 36.144 119.414 38.96C118.966 41.776 118.582 44.88 118.262 48.272C117.942 51.664 117.782 55.024 117.782 58.352C117.782 60.016 117.846 61.84 117.974 63.824C118.166 65.808 118.518 67.504 119.03 68.912C119.606 70.32 120.406 71.024 121.43 71.024H121.526C122.038 71.024 122.582 70.768 123.158 70.256C123.798 69.744 124.47 68.784 125.174 67.376C125.686 66.48 126.134 65.424 126.518 64.208C126.902 62.992 127.318 61.68 127.766 60.272C128.022 59.696 128.278 59.408 128.534 59.408C128.854 59.408 129.014 59.792 129.014 60.56V60.944C128.886 62.608 128.438 64.496 127.67 66.608C126.902 68.72 125.814 70.544 124.406 72.08C123.062 73.616 121.43 74.384 119.51 74.384C117.334 74.384 115.606 73.616 114.326 72.08C113.046 70.48 112.118 68.56 111.542 66.32C110.966 64.016 110.614 61.808 110.486 59.696C110.038 61.36 109.526 63.024 108.95 64.688C108.374 66.352 107.67 67.824 106.838 69.104C104.534 72.624 102.038 74.384 99.35 74.384ZM130.559 74.768C129.663 74.768 128.895 74.448 128.255 73.808C127.679 73.104 127.391 71.952 127.391 70.352C127.391 70.096 127.391 69.84 127.391 69.584C127.391 69.264 127.423 68.944 127.487 68.624C127.615 67.472 127.743 65.872 127.871 63.824C128.063 61.776 128.191 59.472 128.255 56.912C128.383 54.352 128.447 51.792 128.447 49.232C128.447 46.544 128.351 44.016 128.159 41.648C128.031 39.216 127.775 37.296 127.391 35.888C127.903 35.76 128.575 35.408 129.407 34.832C130.239 34.256 131.103 33.872 131.999 33.68C132.191 33.616 132.447 33.584 132.767 33.584C133.855 33.584 134.527 34.16 134.783 35.312C135.103 36.464 135.263 37.872 135.263 39.536C135.263 40.688 135.231 42.064 135.167 43.664C135.167 45.2 135.103 46.544 134.975 47.696C135.679 45.648 136.447 43.888 137.279 42.416C138.111 40.88 139.007 39.408 139.967 38C140.927 36.528 141.951 35.088 143.039 33.68C144.127 32.208 145.599 31.472 147.455 31.472C149.375 31.472 150.623 32.112 151.199 33.392C151.775 34.672 152.063 36.08 152.063 37.616C152.063 38.448 152.031 39.248 151.967 40.016C151.903 40.72 151.839 41.392 151.775 42.032C151.775 42.48 151.679 43.664 151.487 45.584C151.295 47.44 151.103 49.648 150.911 52.208C150.719 54.704 150.623 57.232 150.623 59.792C150.623 60.496 150.655 61.488 150.719 62.768C150.783 63.984 150.911 65.232 151.103 66.512C151.295 67.728 151.615 68.784 152.063 69.68C152.575 70.512 153.247 70.928 154.079 70.928C154.591 70.928 155.167 70.736 155.807 70.352C156.511 69.84 157.119 69.168 157.631 68.336C158.207 67.504 158.655 66.672 158.975 65.84C159.231 65.264 159.487 64.624 159.743 63.92C159.999 63.216 160.223 62.48 160.415 61.712C160.671 60.944 161.023 60.56 161.471 60.56C161.791 60.56 161.951 60.88 161.951 61.52V61.904C161.951 62.352 161.855 62.928 161.663 63.632C161.535 64.336 161.343 65.04 161.087 65.744C160.319 68.112 159.167 70.192 157.631 71.984C156.159 73.712 154.079 74.576 151.391 74.576C149.599 74.576 148.191 73.904 147.167 72.56C146.207 71.152 145.503 69.36 145.055 67.184C144.799 65.968 144.607 64.752 144.479 63.536C144.415 62.32 144.383 61.104 144.383 59.888C144.383 56.88 144.575 53.904 144.959 50.96C145.407 47.952 145.631 45.072 145.631 42.32C145.631 41.424 145.503 40.592 145.247 39.824C145.055 38.992 144.575 38.576 143.807 38.576C143.039 38.576 142.111 39.312 141.023 40.784C139.935 42.192 138.815 44.272 137.663 47.024C136.511 49.712 135.551 52.784 134.783 56.24C134.015 59.632 133.631 63.12 133.631 66.704C133.631 68.88 133.823 71.088 134.207 73.328C133.759 73.648 133.183 73.968 132.479 74.288C131.775 74.608 131.135 74.768 130.559 74.768ZM170.277 75.056C167.397 75.056 164.965 74.384 162.981 73.04C161.061 71.632 160.101 69.168 160.101 65.648C160.101 65.52 160.101 65.232 160.101 64.784C160.165 64.272 160.229 63.76 160.293 63.248C159.909 62.544 159.717 61.584 159.717 60.368C159.717 59.6 159.845 58.928 160.101 58.352C160.357 57.776 160.741 57.488 161.253 57.488H161.349C161.541 57.488 161.797 57.712 162.117 58.16C162.949 55.792 163.717 53.36 164.421 50.864C165.125 48.304 165.765 46.032 166.341 44.048C166.981 41.744 167.781 39.28 168.741 36.656C169.765 33.968 171.365 31.92 173.541 30.512C175.205 29.424 176.997 28.88 178.917 28.88C179.045 28.88 179.205 28.912 179.397 28.976C179.589 28.976 179.749 28.976 179.877 28.976C180.389 29.04 180.645 29.264 180.645 29.648C180.645 30.096 180.421 30.32 179.973 30.32C179.269 30.384 178.757 30.96 178.437 32.048C178.117 33.072 177.957 34.256 177.957 35.6C177.957 35.92 177.957 36.272 177.957 36.656C177.957 37.04 177.989 37.392 178.053 37.712C178.309 39.824 178.885 42.16 179.781 44.72C180.677 47.216 181.509 49.744 182.277 52.304C183.109 54.8 183.525 57.136 183.525 59.312V59.792C183.525 60.624 183.461 61.52 183.333 62.48C183.269 63.44 183.077 64.368 182.757 65.264C183.653 65.2 184.517 65.104 185.349 64.976C186.245 64.784 187.045 64.56 187.749 64.304C188.645 63.92 189.349 63.472 189.861 62.96C190.437 62.448 190.917 61.872 191.301 61.232C191.429 61.04 191.589 60.944 191.781 60.944C192.293 60.944 192.549 61.264 192.549 61.904C192.549 62.096 192.485 62.32 192.357 62.576C191.653 63.984 190.373 65.136 188.517 66.032C186.661 66.928 184.485 67.44 181.989 67.568C181.093 69.616 179.685 71.376 177.765 72.848C175.909 74.32 173.413 75.056 170.277 75.056ZM174.885 64.208C175.013 63.504 175.109 62.768 175.173 62C175.237 61.232 175.269 60.464 175.269 59.696C175.269 58.48 175.205 57.264 175.077 56.048C174.949 54.768 174.789 53.52 174.597 52.304C174.149 49.296 173.605 46.544 172.965 44.048C172.389 41.552 172.101 39.312 172.101 37.328C172.101 36.304 172.197 35.376 172.389 34.544C172.069 34.544 171.717 35.024 171.333 35.984C170.949 36.944 170.565 38.032 170.181 39.248C169.797 40.464 169.477 41.552 169.221 42.512C168.453 45.264 167.621 48.112 166.725 51.056C165.829 53.936 164.869 56.784 163.845 59.6C164.549 60.048 165.349 60.496 166.245 60.944C167.205 61.392 168.133 61.808 169.029 62.192C169.861 62.576 170.757 62.96 171.717 63.344C172.741 63.664 173.797 63.952 174.885 64.208ZM167.685 71.888H168.069C169.221 71.76 170.373 71.376 171.525 70.736C172.677 70.032 173.509 68.976 174.021 67.568C174.021 67.504 174.021 67.472 174.021 67.472C174.085 67.408 174.117 67.344 174.117 67.28C171.749 67.088 169.509 66.8 167.397 66.416C165.349 65.968 163.685 65.424 162.405 64.784C162.405 64.976 162.373 65.168 162.309 65.36C162.309 65.552 162.309 65.712 162.309 65.84C162.309 67.76 162.789 69.264 163.749 70.352C164.773 71.376 166.085 71.888 167.685 71.888ZM200.078 74.48C198.158 74.48 196.59 73.872 195.374 72.656C194.222 71.44 193.326 69.904 192.686 68.048C192.046 66.192 191.598 64.272 191.342 62.288C191.15 60.304 191.054 58.544 191.054 57.008V55.568C191.118 54.8 191.182 53.36 191.246 51.248C191.31 49.136 191.406 46.672 191.534 43.856C191.662 40.976 191.854 38.064 192.11 35.12H189.134C188.622 35.12 188.366 34.8 188.366 34.16C188.366 33.84 188.494 33.52 188.75 33.2C188.942 32.816 189.198 32.624 189.518 32.624H192.302C192.558 29.616 192.846 26.896 193.166 24.464C193.486 22.032 193.87 20.304 194.318 19.28C194.638 18.576 195.214 17.968 196.046 17.456C196.878 16.88 197.998 16.592 199.406 16.592C199.79 16.592 200.206 16.624 200.654 16.688C201.166 16.752 201.646 16.848 202.094 16.976C201.774 18.064 201.39 20.048 200.942 22.928C200.558 25.744 200.206 28.976 199.886 32.624H207.566C208.142 32.624 208.43 32.976 208.43 33.68C208.43 34 208.334 34.32 208.142 34.64C207.95 34.96 207.662 35.12 207.278 35.12H199.598C199.278 38.64 199.022 42.288 198.83 46.064C198.638 49.776 198.51 53.2 198.446 56.336V58.544C198.446 60.208 198.51 62.032 198.638 64.016C198.766 66 199.086 67.696 199.598 69.104C200.11 70.512 200.878 71.216 201.902 71.216H201.998C202.51 71.216 203.054 70.96 203.63 70.448C204.27 69.936 204.942 68.976 205.646 67.568C206.158 66.672 206.606 65.616 206.99 64.4C207.438 63.12 207.886 61.776 208.334 60.368C208.59 59.792 208.846 59.504 209.102 59.504C209.422 59.504 209.582 59.888 209.582 60.656V61.04C209.454 62.704 209.006 64.592 208.238 66.704C207.47 68.816 206.382 70.64 204.974 72.176C203.63 73.712 201.998 74.48 200.078 74.48ZM235.664 74.48C233.68 74.48 232.08 73.872 230.864 72.656C229.648 71.376 228.688 69.776 227.984 67.856C227.344 65.872 226.896 63.888 226.64 61.904C226.384 59.856 226.256 58.064 226.256 56.528C225.488 59.408 224.496 62.224 223.28 64.976C222.128 67.728 220.848 70 219.44 71.792C218.032 73.52 216.496 74.384 214.832 74.384H214.736C213.2 74.384 211.92 73.68 210.896 72.272C209.872 70.8 209.104 68.88 208.592 66.512C208.08 64.144 207.824 61.584 207.824 58.832V57.872C207.824 55.312 208.048 52.496 208.496 49.424C208.944 46.288 209.744 43.312 210.896 40.496C212.048 37.68 213.616 35.376 215.6 33.584C217.648 31.728 220.24 30.8 223.376 30.8C224.592 30.8 225.68 31.088 226.64 31.664C227.664 32.176 228.4 32.944 228.848 33.968C229.296 33.456 229.904 33.04 230.672 32.72C231.44 32.4 232.368 32.24 233.456 32.24C233.84 32.24 234.256 32.272 234.704 32.336C235.216 32.4 235.728 32.496 236.24 32.624C235.856 34.096 235.408 36.112 234.896 38.672C234.384 41.232 233.936 44.048 233.552 47.12C233.232 50.128 233.072 53.072 233.072 55.952V56.336C233.072 57.552 233.136 58.992 233.264 60.656C233.392 62.32 233.616 63.952 233.936 65.552C234.256 67.152 234.704 68.496 235.28 69.584C235.856 70.672 236.592 71.216 237.488 71.216H237.584C238.096 71.216 238.64 70.96 239.216 70.448C239.856 69.936 240.528 68.976 241.232 67.568C242.192 65.712 243.088 63.312 243.92 60.368C244.048 59.792 244.304 59.504 244.688 59.504C245.008 59.504 245.168 59.888 245.168 60.656V61.04C245.04 62.704 244.592 64.592 243.824 66.704C243.056 68.816 241.968 70.64 240.56 72.176C239.216 73.712 237.584 74.48 235.664 74.48ZM218.096 66.512C219.12 66.512 220.048 65.776 220.88 64.304C221.776 62.832 222.576 61.04 223.28 58.928C223.984 56.816 224.592 54.768 225.104 52.784C225.872 49.84 226.384 46.864 226.64 43.856C226.896 40.784 227.44 37.776 228.272 34.832C227.504 34 226.64 33.584 225.68 33.584C224.272 33.584 222.832 34.288 221.36 35.696C219.888 37.104 218.736 38.704 217.904 40.496C216.88 42.736 216.112 45.36 215.6 48.368C215.152 51.376 214.928 54.256 214.928 57.008C214.928 57.712 214.928 58.416 214.928 59.12C214.992 59.824 215.056 60.496 215.12 61.136C215.248 63.056 215.6 64.432 216.176 65.264C216.816 66.096 217.456 66.512 218.096 66.512ZM251.995 109.328C248.475 109.328 245.947 108.432 244.411 106.64C242.939 104.912 242.203 102.736 242.203 100.112C242.203 98.128 242.555 96.016 243.259 93.776C243.963 91.6 244.859 89.424 245.947 87.248C247.419 84.368 249.371 81.712 251.803 79.28C254.235 76.848 256.731 74.704 259.291 72.848C261.851 70.928 264.059 69.392 265.915 68.24V67.568C265.915 66.416 265.851 64.848 265.723 62.864C265.659 60.88 265.563 58.8 265.435 56.624C265.307 54.448 265.179 52.528 265.051 50.864C264.923 51.312 264.795 51.76 264.667 52.208C264.539 52.592 264.411 52.976 264.283 53.36C263.707 55.536 263.035 57.872 262.267 60.368C261.499 62.864 260.603 65.2 259.579 67.376C258.555 69.488 257.371 71.248 256.027 72.656C254.747 74 253.307 74.672 251.707 74.672C250.043 74.672 248.699 74.16 247.675 73.136C246.651 72.112 245.883 70.832 245.371 69.296C244.859 67.696 244.507 66.064 244.315 64.4C244.123 62.736 244.027 61.232 244.027 59.888C244.027 54.768 244.603 49.904 245.755 45.296C246.971 40.688 249.051 37.008 251.995 34.256C253.275 33.04 254.587 32.176 255.931 31.664C257.339 31.152 258.651 30.896 259.867 30.896C261.339 30.896 262.683 31.216 263.899 31.856C265.179 32.432 266.203 33.2 266.971 34.16C267.739 33.264 268.603 32.72 269.563 32.528C270.523 32.272 271.387 32.144 272.155 32.144H273.307C274.267 32.144 274.747 32.336 274.747 32.72C274.747 32.848 274.619 33.04 274.363 33.296C273.723 33.872 273.211 34.992 272.827 36.656C272.507 38.32 272.283 40.304 272.155 42.608C272.027 44.848 271.963 47.184 271.963 49.616C271.963 52.368 271.995 55.024 272.059 57.584C272.123 60.08 272.155 62.032 272.155 63.44V64.496C273.947 63.408 275.547 62.544 276.955 61.904C278.363 61.2 279.419 60.848 280.123 60.848C280.251 60.848 280.347 60.88 280.411 60.944C280.475 60.944 280.539 60.944 280.603 60.944C280.923 61.008 281.083 61.232 281.083 61.616C281.083 61.872 281.019 62.128 280.891 62.384C280.763 62.576 280.571 62.672 280.315 62.672C279.547 62.736 278.491 63.152 277.147 63.92C275.867 64.624 274.683 65.456 273.595 66.416C272.507 67.312 271.963 68.112 271.963 68.816V70.352C271.963 79.184 271.035 86.48 269.179 92.24C267.387 98 264.955 102.288 261.883 105.104C258.875 107.92 255.579 109.328 251.995 109.328ZM254.203 66.896H254.491C255.707 66.896 256.795 66.096 257.755 64.496C258.779 62.896 259.675 60.88 260.443 58.448C261.275 55.952 261.979 53.392 262.555 50.768C263.195 48.08 263.707 45.68 264.091 43.568C264.475 41.392 264.763 39.824 264.955 38.864C265.211 37.328 265.659 36.048 266.299 35.024C265.595 34.128 264.603 33.68 263.323 33.68C261.403 33.68 259.739 34.288 258.331 35.504C256.987 36.72 255.835 38.32 254.875 40.304C253.979 42.288 253.243 44.4 252.667 46.64C252.155 48.816 251.771 50.928 251.515 52.976C251.259 54.96 251.131 56.624 251.131 57.968C251.131 58.416 251.131 59.12 251.131 60.08C251.195 61.04 251.323 62.064 251.515 63.152C251.707 64.176 251.995 65.072 252.379 65.84C252.827 66.544 253.435 66.896 254.203 66.896ZM250.939 107.312C254.075 107.312 256.699 105.808 258.811 102.8C260.923 99.792 262.555 95.536 263.707 90.032C264.923 84.592 265.691 78.128 266.011 70.64C264.987 71.216 263.419 72.4 261.307 74.192C259.195 75.984 256.987 78.192 254.683 80.816C252.443 83.504 250.555 86.544 249.019 89.936C248.187 91.792 247.547 93.584 247.099 95.312C246.651 97.104 246.427 98.736 246.427 100.208C246.427 102.32 246.811 104.016 247.579 105.296C248.411 106.64 249.531 107.312 250.939 107.312ZM298.725 74.48C296.613 74.48 294.949 73.808 293.733 72.464C292.517 71.056 291.653 69.264 291.141 67.088C290.693 64.848 290.469 62.448 290.469 59.888C290.469 57.136 290.629 54.448 290.949 51.824C291.333 49.136 291.717 46.768 292.101 44.72C292.549 42.672 292.869 41.264 293.061 40.496C291.269 40.368 289.861 40.08 288.837 39.632C287.813 39.184 286.949 38.64 286.245 38C285.989 41.072 285.573 44.368 284.997 47.888C284.485 51.408 283.877 54.8 283.173 58.064C282.469 61.264 281.701 64.016 280.869 66.32C280.613 67.152 280.197 67.568 279.621 67.568C279.173 67.568 278.949 67.28 278.949 66.704C278.949 66.576 278.949 66.416 278.949 66.224C279.013 66.032 279.077 65.84 279.141 65.648C280.165 62.704 281.029 59.504 281.733 56.048C282.437 52.528 282.981 49.136 283.365 45.872C283.749 42.608 283.941 39.888 283.941 37.712V36.656C282.341 35.952 281.157 34.928 280.389 33.584C279.685 32.24 279.333 30.96 279.333 29.744C279.333 28.848 279.493 28.048 279.813 27.344C280.197 26.64 280.741 26.288 281.445 26.288H281.637C282.533 26.288 283.333 26.928 284.037 28.208C284.741 29.424 285.317 30.8 285.765 32.336C286.213 33.808 286.437 34.992 286.437 35.888C287.205 36.464 288.037 36.88 288.933 37.136C289.893 37.392 290.693 37.52 291.333 37.52C292.165 37.52 292.709 37.392 292.965 37.136C293.477 36.624 294.085 35.888 294.789 34.928C295.557 33.968 296.741 33.488 298.341 33.488C299.429 33.488 300.741 33.808 302.277 34.448C301.509 36.048 300.805 37.872 300.165 39.92C299.525 41.904 298.981 44.016 298.533 46.256C298.469 46.768 298.309 47.792 298.053 49.328C297.797 50.864 297.573 52.624 297.381 54.608C297.189 56.592 297.093 58.576 297.093 60.56C297.093 63.376 297.381 65.872 297.957 68.048C298.597 70.16 299.749 71.216 301.413 71.216C302.437 71.216 303.333 70.8 304.101 69.968C304.869 69.136 305.541 68.112 306.117 66.896C306.693 65.616 307.173 64.4 307.557 63.248C307.941 62.032 308.229 61.072 308.421 60.368C308.549 59.792 308.805 59.504 309.189 59.504C309.509 59.504 309.669 59.856 309.669 60.56V61.04C309.669 63.984 309.125 66.48 308.037 68.528C307.013 70.512 305.669 72.016 304.005 73.04C302.341 74 300.581 74.48 298.725 74.48ZM335.695 74.48C333.711 74.48 332.111 73.872 330.895 72.656C329.679 71.376 328.719 69.776 328.015 67.856C327.375 65.872 326.927 63.888 326.671 61.904C326.415 59.856 326.287 58.064 326.287 56.528C325.519 59.408 324.527 62.224 323.311 64.976C322.159 67.728 320.879 70 319.471 71.792C318.063 73.52 316.527 74.384 314.863 74.384H314.767C313.231 74.384 311.951 73.68 310.927 72.272C309.903 70.8 309.135 68.88 308.623 66.512C308.111 64.144 307.855 61.584 307.855 58.832V57.872C307.855 55.312 308.079 52.496 308.527 49.424C308.975 46.288 309.775 43.312 310.927 40.496C312.079 37.68 313.647 35.376 315.631 33.584C317.679 31.728 320.271 30.8 323.407 30.8C324.623 30.8 325.711 31.088 326.671 31.664C327.695 32.176 328.431 32.944 328.879 33.968C329.327 33.456 329.935 33.04 330.703 32.72C331.471 32.4 332.399 32.24 333.487 32.24C333.871 32.24 334.287 32.272 334.735 32.336C335.247 32.4 335.759 32.496 336.271 32.624C335.887 34.096 335.439 36.112 334.927 38.672C334.415 41.232 333.967 44.048 333.583 47.12C333.263 50.128 333.103 53.072 333.103 55.952V56.336C333.103 57.552 333.167 58.992 333.295 60.656C333.423 62.32 333.647 63.952 333.967 65.552C334.287 67.152 334.735 68.496 335.311 69.584C335.887 70.672 336.623 71.216 337.519 71.216H337.615C338.127 71.216 338.671 70.96 339.247 70.448C339.887 69.936 340.559 68.976 341.263 67.568C342.223 65.712 343.119 63.312 343.951 60.368C344.079 59.792 344.335 59.504 344.719 59.504C345.039 59.504 345.199 59.888 345.199 60.656V61.04C345.071 62.704 344.623 64.592 343.855 66.704C343.087 68.816 341.999 70.64 340.591 72.176C339.247 73.712 337.615 74.48 335.695 74.48ZM318.127 66.512C319.151 66.512 320.079 65.776 320.911 64.304C321.807 62.832 322.607 61.04 323.311 58.928C324.015 56.816 324.623 54.768 325.135 52.784C325.903 49.84 326.415 46.864 326.671 43.856C326.927 40.784 327.471 37.776 328.303 34.832C327.535 34 326.671 33.584 325.711 33.584C324.303 33.584 322.863 34.288 321.391 35.696C319.919 37.104 318.767 38.704 317.935 40.496C316.911 42.736 316.143 45.36 315.631 48.368C315.183 51.376 314.959 54.256 314.959 57.008C314.959 57.712 314.959 58.416 314.959 59.12C315.023 59.824 315.087 60.496 315.151 61.136C315.279 63.056 315.631 64.432 316.207 65.264C316.847 66.096 317.487 66.512 318.127 66.512ZM346.171 74.768C344.443 74.768 343.579 73.616 343.579 71.312C343.579 70.928 343.579 70.512 343.579 70.064C343.643 69.616 343.707 69.136 343.771 68.624C343.963 67.536 344.123 66 344.251 64.016C344.379 61.968 344.475 59.696 344.539 57.2C344.667 54.64 344.73 52.112 344.73 49.616C344.73 46.8 344.635 44.176 344.443 41.744C344.315 39.248 344.027 37.296 343.579 35.888C344.219 35.76 344.923 35.408 345.691 34.832C346.459 34.256 347.291 33.872 348.187 33.68C348.379 33.616 348.635 33.584 348.955 33.584C350.043 33.584 350.715 34.16 350.971 35.312C351.291 36.464 351.451 37.872 351.451 39.536C351.451 40.688 351.419 42.064 351.355 43.664C351.355 45.2 351.291 46.544 351.163 47.696C351.867 45.648 352.635 43.888 353.467 42.416C354.299 40.88 355.195 39.408 356.155 38C357.499 35.952 358.875 34.352 360.283 33.2C361.755 32.048 363.131 31.472 364.411 31.472C365.947 31.472 366.939 31.952 367.387 32.912C367.899 33.808 368.155 34.928 368.155 36.272C368.155 37.168 368.091 38.128 367.963 39.152C367.899 40.112 367.835 41.072 367.771 42.032L367.195 50.576L368.155 47.696C368.859 45.648 369.627 43.888 370.459 42.416C371.291 40.88 372.187 39.408 373.147 38C374.491 35.952 375.867 34.352 377.275 33.2C378.747 32.048 380.123 31.472 381.403 31.472C383.195 31.472 384.347 32.08 384.859 33.296C385.371 34.448 385.627 35.888 385.627 37.616C385.627 38.32 385.595 39.056 385.531 39.824C385.531 40.528 385.499 41.264 385.435 42.032C385.371 42.928 385.243 44.752 385.051 47.504C384.859 50.192 384.699 53.104 384.571 56.24C384.571 56.496 384.539 57.008 384.475 57.776C384.475 58.544 384.475 59.408 384.475 60.368C384.475 61.84 384.539 63.408 384.667 65.072C384.859 66.672 385.179 68.048 385.627 69.2C386.139 70.352 386.843 70.928 387.739 70.928C388.955 70.928 389.979 70.352 390.811 69.2C391.643 67.984 392.315 66.64 392.827 65.168C393.403 63.696 393.787 62.544 393.979 61.712C394.235 60.944 394.555 60.56 394.939 60.56C395.323 60.56 395.515 60.944 395.515 61.712V61.904C395.515 62.352 395.419 62.928 395.227 63.632C395.099 64.336 394.907 65.04 394.651 65.744C393.883 68.112 392.795 70.192 391.387 71.984C389.979 73.712 387.931 74.576 385.243 74.576C383.067 74.576 381.435 73.904 380.347 72.56C379.323 71.152 378.619 69.488 378.235 67.568C377.915 65.648 377.755 63.824 377.755 62.096V60.368C377.883 57.552 377.979 55.12 378.043 53.072C378.107 50.96 378.171 48.816 378.235 46.64C378.235 46.32 378.235 45.936 378.235 45.488C378.299 45.04 378.331 44.528 378.331 43.952C378.331 42.736 378.235 41.552 378.043 40.4C377.851 39.248 377.403 38.672 376.699 38.672C376.187 38.672 375.355 39.376 374.203 40.784C373.179 42.192 372.123 44.144 371.035 46.64C370.011 49.136 369.147 51.984 368.443 55.184C367.739 58.384 367.387 61.712 367.387 65.168C367.387 66.384 367.419 67.6 367.483 68.816C367.611 69.968 367.803 71.152 368.059 72.368C367.931 72.432 367.675 72.528 367.291 72.656C366.971 72.784 366.555 72.848 366.043 72.848C365.339 72.848 364.603 72.624 363.835 72.176C363.067 71.728 362.427 70.8 361.915 69.392C361.467 68.112 361.147 66.768 360.955 65.36C360.827 63.888 360.763 62.384 360.763 60.848C360.763 58.608 360.859 56.336 361.051 54.032C361.243 51.728 361.403 49.456 361.531 47.216V45.776C361.531 44.944 361.499 44.016 361.435 42.992C361.371 41.904 361.179 40.976 360.859 40.208C360.603 39.376 360.187 38.96 359.611 38.96C358.907 38.96 358.107 39.568 357.211 40.784C356.123 42.192 355.003 44.272 353.851 47.024C352.699 49.712 351.739 52.784 350.971 56.24C350.203 59.632 349.819 63.152 349.819 66.8C349.819 68.976 350.011 71.184 350.395 73.424C349.691 73.808 348.955 74.128 348.187 74.384C347.483 74.64 346.811 74.768 346.171 74.768Z" fill="white"/>
</svg>
